<svg width="19" height="13" viewBox="0 0 19 13" fill="none" xmlns="http://www.w3.org/2000/svg">
<path d="M17.6767 2.62759C17.4805 1.88853 16.9021 1.30647 16.1679 1.10894C14.8369 0.75 9.50002 0.75 9.50002 0.75C9.50002 0.75 4.16314 0.75 2.83217 1.10894C2.09789 1.3065 1.51958 1.88853 1.3233 2.62759C0.966675 3.96719 0.966675 6.76213 0.966675 6.76213C0.966675 6.76213 0.966675 9.55706 1.3233 10.8967C1.51958 11.6357 2.09789 12.1935 2.83217 12.3911C4.16314 12.75 9.50002 12.75 9.50002 12.75C9.50002 12.75 14.8369 12.75 16.1679 12.3911C16.9021 12.1935 17.4805 11.6357 17.6767 10.8967C18.0334 9.55706 18.0334 6.76213 18.0334 6.76213C18.0334 6.76213 18.0334 3.96719 17.6767 2.62759ZM7.75455 9.29972V4.22453L12.2151 6.76219L7.75455 9.29972Z" fill="#F1EBC9"/>
</svg>
