<svg width="17" height="17" viewBox="0 0 17 17" fill="none" xmlns="http://www.w3.org/2000/svg">
<path d="M8.50353 4.70732C6.26759 4.70732 4.46407 6.51084 4.46407 8.74678C4.46407 10.9827 6.26759 12.7862 8.50353 12.7862C10.7395 12.7862 12.543 10.9827 12.543 8.74678C12.543 6.51084 10.7395 4.70732 8.50353 4.70732ZM8.50353 11.3729C7.05861 11.3729 5.87736 10.1952 5.87736 8.74678C5.87736 7.29834 7.05509 6.12061 8.50353 6.12061C9.95197 6.12061 11.1297 7.29834 11.1297 8.74678C11.1297 10.1952 9.94845 11.3729 8.50353 11.3729ZM13.6504 4.54209C13.6504 5.06592 13.2285 5.48428 12.7082 5.48428C12.1844 5.48428 11.766 5.0624 11.766 4.54209C11.766 4.02178 12.1879 3.5999 12.7082 3.5999C13.2285 3.5999 13.6504 4.02178 13.6504 4.54209ZM16.3258 5.49834C16.266 4.23623 15.9777 3.11826 15.0531 2.19717C14.132 1.27607 13.0141 0.987793 11.752 0.924512C10.4512 0.850684 6.55236 0.850684 5.25157 0.924512C3.99298 0.984277 2.87501 1.27256 1.9504 2.19365C1.02579 3.11475 0.741028 4.23271 0.677747 5.49482C0.603918 6.79561 0.603918 10.6944 0.677747 11.9952C0.737512 13.2573 1.02579 14.3753 1.9504 15.2964C2.87501 16.2175 3.98947 16.5058 5.25157 16.569C6.55236 16.6429 10.4512 16.6429 11.752 16.569C13.0141 16.5093 14.132 16.221 15.0531 15.2964C15.9742 14.3753 16.2625 13.2573 16.3258 11.9952C16.3996 10.6944 16.3996 6.79912 16.3258 5.49834ZM14.6453 13.3909C14.3711 14.08 13.8402 14.6108 13.1477 14.8886C12.1106 15.2999 9.64962 15.205 8.50353 15.205C7.35743 15.205 4.89298 15.2964 3.85939 14.8886C3.17032 14.6144 2.63947 14.0835 2.36173 13.3909C1.9504 12.3538 2.04532 9.89287 2.04532 8.74678C2.04532 7.60068 1.95392 5.13623 2.36173 4.10264C2.63595 3.41357 3.16681 2.88271 3.85939 2.60498C4.8965 2.19365 7.35743 2.28857 8.50353 2.28857C9.64962 2.28857 12.1141 2.19717 13.1477 2.60498C13.8367 2.8792 14.3676 3.41006 14.6453 4.10264C15.0567 5.13975 14.9617 7.60068 14.9617 8.74678C14.9617 9.89287 15.0567 12.3573 14.6453 13.3909Z" fill="#F1EBC9"/>
</svg>
