<svg width="34" height="35" viewBox="0 0 34 35" fill="none" xmlns="http://www.w3.org/2000/svg">
<path d="M17 0.986816C7.63477 0.986816 0.046875 8.57471 0.046875 17.9399C0.046875 27.3052 7.63477 34.8931 17 34.8931C26.3652 34.8931 33.9531 27.3052 33.9531 17.9399C33.9531 8.57471 26.3652 0.986816 17 0.986816ZM7.70312 15.7114C7.92871 12.8335 9.9043 10.8306 11.5312 10.8306C13.1582 10.8306 15.1338 12.8335 15.3594 15.7114C15.4072 16.2993 14.6211 16.5249 14.3408 16.019L13.6914 14.8569C13.165 13.9204 12.3789 13.3804 11.5381 13.3804C10.6973 13.3804 9.91113 13.9204 9.38477 14.8569L8.73535 16.019C8.44141 16.5249 7.65527 16.2925 7.70312 15.7114ZM24.8477 24.106C22.8994 26.4438 20.042 27.7837 17 27.7837C13.958 27.7837 11.1006 26.4438 9.15234 24.106C8.22949 22.9917 9.9043 21.5972 10.834 22.7046C12.3652 24.5435 14.6074 25.5894 17 25.5894C19.3926 25.5894 21.6348 24.5366 23.166 22.7046C24.0957 21.5972 25.7705 22.9985 24.8477 24.106ZM25.2715 16.019L24.6221 14.8569C24.0957 13.9204 23.3096 13.3804 22.4688 13.3804C21.6279 13.3804 20.8418 13.9204 20.3154 14.8569L19.666 16.019C19.3857 16.5181 18.5996 16.2925 18.6475 15.7114C18.873 12.8335 20.8486 10.8306 22.4756 10.8306C24.1025 10.8306 26.0781 12.8335 26.3037 15.7114C26.3447 16.2993 25.5518 16.5249 25.2715 16.019Z" fill="white"/>
</svg>
