<svg width="36" height="36" viewBox="0 0 36 36" fill="none" xmlns="http://www.w3.org/2000/svg">
<path d="M34.5013 25.1722L26.845 21.891C26.518 21.7516 26.1545 21.7222 25.8092 21.8073C25.464 21.8924 25.1558 22.0873 24.931 22.3627L21.5403 26.5052C16.2191 23.9963 11.9367 19.7139 9.42773 14.3926L13.5703 11.002C13.8463 10.7776 14.0416 10.4693 14.1267 10.124C14.2118 9.77861 14.1821 9.41491 14.042 9.08795L10.7607 1.4317C10.607 1.07925 10.3351 0.791482 9.99194 0.618022C9.64876 0.444562 9.25582 0.396283 8.88086 0.481509L1.77148 2.12213C1.40998 2.20561 1.08744 2.40916 0.856518 2.69955C0.625593 2.98995 0.499917 3.35004 0.5 3.72106C0.5 21.2552 14.7119 35.4398 32.2188 35.4398C32.5899 35.44 32.9501 35.3144 33.2407 35.0835C33.5312 34.8526 33.7349 34.5299 33.8184 34.1683L35.459 27.059C35.5437 26.6822 35.4944 26.2876 35.3196 25.9433C35.1448 25.5989 34.8554 25.3263 34.5013 25.1722Z" fill="#F1EBC9"/>
</svg>
