<svg width="39" height="32" viewBox="0 0 39 32" fill="none" xmlns="http://www.w3.org/2000/svg">
<path d="M19.63 14.75C18.406 14.75 17.3514 15.1862 16.4659 16.0586C15.5805 16.931 15.1378 17.9792 15.1378 19.2031C15.1378 20.4531 15.5805 21.5143 16.4659 22.3867C17.3514 23.2591 18.406 23.6953 19.63 23.6953C20.854 23.6953 21.9086 23.2591 22.7941 22.3867C23.6795 21.5143 24.1222 20.4531 24.1222 19.2031C24.1222 17.9792 23.6795 16.931 22.7941 16.0586C21.9086 15.1862 20.854 14.75 19.63 14.75ZM19.63 22.4453C18.7446 22.4453 17.9829 22.1328 17.3448 21.5078C16.7068 20.8828 16.3878 20.1146 16.3878 19.2031C16.3878 18.3177 16.7068 17.5625 17.3448 16.9375C17.9829 16.3125 18.7446 16 19.63 16C20.5154 16 21.2771 16.3125 21.9152 16.9375C22.5532 17.5625 22.8722 18.3177 22.8722 19.2031C22.8722 20.1146 22.5532 20.8828 21.9152 21.5078C21.2771 22.1328 20.5154 22.4453 19.63 22.4453ZM37.6378 6.3125C37.0128 5.79167 36.1404 5.19271 35.0206 4.51562C33.9008 3.86458 32.5662 3.24609 31.0167 2.66016C29.4672 2.07422 27.742 1.58594 25.8409 1.19531C23.9139 0.778646 21.8435 0.570312 19.63 0.570312C17.4165 0.570312 15.3461 0.778646 13.4191 1.19531C11.518 1.58594 9.79276 2.07422 8.24328 2.66016C6.6938 3.24609 5.35917 3.86458 4.23938 4.51562C3.11959 5.19271 2.24719 5.79167 1.62219 6.3125C1.28365 6.59896 1.05578 7.0026 0.938596 7.52344C0.821408 8.04427 0.853961 8.52604 1.03625 8.96875L2.20813 11.8984C2.54667 12.7578 3.08703 13.4414 3.82922 13.9492C4.57141 14.457 5.39823 14.7109 6.30969 14.7109H10.9581L10.5675 16.4297C10.3592 17.0807 10.0402 17.582 9.61047 17.9336C9.18078 18.2852 8.67948 18.4609 8.10656 18.4609C7.58573 18.4609 7.08443 18.5716 6.60266 18.793C6.12089 19.0143 5.72375 19.3203 5.41125 19.7109C5.17688 19.9974 5.00761 20.3229 4.90344 20.6875C4.79927 21.0521 4.78625 21.4167 4.86438 21.7812L5.99719 27.6016H5.48938C5.30709 27.6016 5.15735 27.6602 5.04016 27.7773C4.92297 27.8945 4.86438 28.0443 4.86438 28.2266C4.86438 28.3828 4.92297 28.526 5.04016 28.6562C5.15735 28.7865 5.30709 28.8516 5.48938 28.8516H7.4425V30.8047C7.4425 30.9609 7.5011 31.1042 7.61828 31.2344C7.73547 31.3646 7.88521 31.4297 8.0675 31.4297C8.22375 31.4297 8.36698 31.3646 8.49719 31.2344C8.6274 31.1042 8.6925 30.9609 8.6925 30.8047V28.8516H23.7316C23.8878 28.8516 24.031 28.7865 24.1612 28.6562C24.2915 28.526 24.3566 28.3828 24.3566 28.2266C24.3566 28.0443 24.2915 27.8945 24.1612 27.7773C24.031 27.6602 23.8878 27.6016 23.7316 27.6016H7.28625L6.11438 21.5469C6.06229 21.3125 6.07531 21.1042 6.15344 20.9219C6.23156 20.7396 6.30969 20.5964 6.38781 20.4922C6.59615 20.2578 6.85656 20.069 7.16906 19.9258C7.48156 19.7826 7.79406 19.7109 8.10656 19.7109C8.96594 19.7109 9.71464 19.457 10.3527 18.9492C10.9907 18.4414 11.4659 17.7188 11.7784 16.7812L12.6378 13.1094C12.8461 12.4323 13.2433 11.8854 13.8292 11.4688C14.4152 11.0521 15.0597 10.8438 15.7628 10.8438H23.4972C24.2003 10.8438 24.8448 11.0521 25.4308 11.4688C26.0167 11.8854 26.4139 12.4193 26.6222 13.0703L27.5206 16.8594C27.8071 17.7448 28.2693 18.4414 28.9073 18.9492C29.5454 19.457 30.2941 19.7109 31.1534 19.7109C31.7003 19.7109 32.1691 19.8932 32.5597 20.2578C32.9503 20.6224 33.1456 21.0651 33.1456 21.5859L31.9737 27.6016H29.0831C28.9269 27.6016 28.7836 27.6602 28.6534 27.7773C28.5232 27.8945 28.4581 28.0443 28.4581 28.2266C28.4581 28.3828 28.5232 28.526 28.6534 28.6562C28.7836 28.7865 28.9269 28.8516 29.0831 28.8516H30.5675V30.8047C30.5675 30.9609 30.6326 31.1042 30.7628 31.2344C30.893 31.3646 31.0362 31.4297 31.1925 31.4297C31.3748 31.4297 31.5245 31.3646 31.6417 31.2344C31.7589 31.1042 31.8175 30.9609 31.8175 30.8047V28.8516H33.7706C33.9529 28.8516 34.1027 28.7865 34.2198 28.6562C34.337 28.526 34.3956 28.3828 34.3956 28.2266C34.3956 28.0443 34.337 27.8945 34.2198 27.7773C34.1027 27.6602 33.9529 27.6016 33.7706 27.6016H33.2628L34.3956 21.7812C34.3956 21.7552 34.3956 21.7357 34.3956 21.7227C34.3956 21.7096 34.3956 21.6901 34.3956 21.6641C34.3956 20.7526 34.0831 19.9909 33.4581 19.3789C32.8331 18.7669 32.0649 18.4609 31.1534 18.4609C30.5805 18.4609 30.0792 18.2852 29.6495 17.9336C29.2198 17.582 28.9008 17.1068 28.6925 16.5078L28.3019 14.7109H32.9503C33.8618 14.7109 34.6886 14.457 35.4308 13.9492C36.173 13.4414 36.7133 12.7578 37.0519 11.8984L38.2237 8.96875C38.406 8.52604 38.4386 8.04427 38.3214 7.52344C38.2042 7.0026 37.9764 6.59896 37.6378 6.3125ZM37.0519 8.5L35.88 11.4297C35.6456 12.0547 35.2615 12.5495 34.7277 12.9141C34.1938 13.2786 33.6014 13.4609 32.9503 13.4609H27.9894L27.8331 12.7188C27.6248 12.0677 27.2928 11.5078 26.837 11.0391C26.3813 10.5703 25.854 10.2057 25.255 9.94531C25.3071 9.89323 25.3461 9.83463 25.3722 9.76953C25.3982 9.70443 25.4112 9.63281 25.4112 9.55469V7.64062C25.4112 7.45833 25.3461 7.30859 25.2159 7.19141C25.0857 7.07422 24.9425 7.01562 24.7862 7.01562C24.604 7.01562 24.4542 7.07422 24.337 7.19141C24.2198 7.30859 24.1612 7.45833 24.1612 7.64062V9.55469C24.1612 9.58073 24.1612 9.60026 24.1612 9.61328C24.1612 9.6263 24.1612 9.63281 24.1612 9.63281C24.0571 9.63281 23.9464 9.6263 23.8292 9.61328C23.712 9.60026 23.6014 9.59375 23.4972 9.59375H15.7628C15.6586 9.59375 15.548 9.60026 15.4308 9.61328C15.3136 9.6263 15.2029 9.63281 15.0988 9.63281C15.0988 9.63281 15.0988 9.6263 15.0988 9.61328C15.0988 9.60026 15.0988 9.58073 15.0988 9.55469V7.64062C15.0988 7.45833 15.0402 7.30859 14.923 7.19141C14.8058 7.07422 14.656 7.01562 14.4738 7.01562C14.3175 7.01562 14.1743 7.07422 14.0441 7.19141C13.9139 7.30859 13.8488 7.45833 13.8488 7.64062V9.55469C13.8488 9.63281 13.8618 9.70443 13.8878 9.76953C13.9139 9.83463 13.9529 9.89323 14.005 9.94531C13.406 10.2057 12.8787 10.5768 12.423 11.0586C11.9672 11.5404 11.6352 12.1068 11.4269 12.7578L11.2706 13.4609H6.30969C5.65865 13.4609 5.0662 13.2786 4.53235 12.9141C3.99849 12.5495 3.61438 12.0547 3.38 11.4297L2.20813 8.5C2.13 8.31771 2.11047 8.09635 2.14953 7.83594C2.1886 7.57552 2.28625 7.39323 2.4425 7.28906C2.49459 7.23698 2.92427 6.92448 3.73156 6.35156C4.53886 5.77865 5.67167 5.15365 7.13 4.47656C8.58833 3.79948 10.3722 3.1875 12.4816 2.64062C14.5909 2.09375 16.9738 1.82031 19.63 1.82031C22.2862 1.82031 24.6691 2.09375 26.7784 2.64062C28.8878 3.1875 30.6717 3.79948 32.13 4.47656C33.5883 5.15365 34.7211 5.77865 35.5284 6.35156C36.3357 6.92448 36.7654 7.23698 36.8175 7.28906C36.9737 7.39323 37.0714 7.57552 37.1105 7.83594C37.1495 8.09635 37.13 8.31771 37.0519 8.5ZM26.7003 27.6016H26.1144C25.9321 27.6016 25.7823 27.6602 25.6652 27.7773C25.548 27.8945 25.4894 28.0443 25.4894 28.2266C25.4894 28.3828 25.548 28.526 25.6652 28.6562C25.7823 28.7865 25.9321 28.8516 26.1144 28.8516H26.7003C26.8826 28.8516 27.0323 28.7865 27.1495 28.6562C27.2667 28.526 27.3253 28.3828 27.3253 28.2266C27.3253 28.0443 27.2667 27.8945 27.1495 27.7773C27.0323 27.6602 26.8826 27.6016 26.7003 27.6016Z" fill="#F1EBC9"/>
</svg>
